
<svg version="1.1" xmlns="http://www.w3.org/2000/svg" xmlns:xlink="http://www.w3.org/1999/xlink" viewBox="0 0 143 34" preserveAspectRatio="xMidYMid" width="170" height="40">
<path fill="#DE1212" d="M142.8,34c-1.8-0.3-3.6-0.5-5.4-0.8c-1.5-3.8-3.1-7.5-4.6-11.1c-1.3,3.4-2.6,6.7-4,10c-1.7-0.2-3.4-0.4-5.1-0.6
c2.2-5.1,4.3-10.3,6.5-15.6c-2.1-5-4.2-9.8-6.3-14.5c1.8,0,3.7,0,5.5,0.1c1.4,3.2,2.8,6.5,4.2,9.8c1.2-3.2,2.4-6.4,3.7-9.7
c1.7,0,3.4,0.1,5.1,0.1c-2.1,5.4-4.1,10.7-6.2,15.8C138.3,22.8,140.5,28.3,142.8,34z M115.6,1.3c1.9,0,3.9,0,5.8,0.1
c0,10,0.1,20,0.1,29.9c-1.9-0.2-3.9-0.4-5.8-0.6C115.7,20.9,115.6,11.1,115.6,1.3z M99.4,1.1c2,0,3.9,0,5.9,0
c0,8.4,0.1,16.7,0.1,25.1c2.6,0.2,5.3,0.4,7.9,0.6c0,1.2,0,2.4,0,3.6c-4.6-0.4-9.2-0.7-13.8-1C99.5,20,99.4,10.6,99.4,1.1z
M89.6,12.7c2,0,4.1,0.1,6.1,0.1c0,1.2,0,2.4,0,3.6c-2-0.1-4.1-0.1-6.1-0.2c0,4.2,0,8.5,0,12.7c-2-0.1-3.9-0.1-5.9-0.2
c0-9.2,0-18.5,0-27.7c4.4,0,8.9,0,13.3,0.1c0,1.2,0,2.4,0,3.6c-2.5,0-5-0.1-7.4-0.1C89.6,7.3,89.6,10,89.6,12.7z M70.8,29
c-3.4,0-5.8-0.7-7.2-2.2c-1.4-1.5-2.2-3.7-2.2-6.7c0-3.5,0-6.9,0-10.4c0-2.9,0.7-5.2,2.2-6.7c1.4-1.5,3.8-2.3,7.2-2.3
c3.3,0,5.7,0.8,7.2,2.3c1.4,1.5,2.2,3.7,2.2,6.7c0,3.5,0,6.9,0,10.4c0,2.9-0.7,5.2-2.2,6.7C76.5,28.2,74.1,29,70.8,29z M74.1,8.5
c0-1.3-0.2-2.3-0.7-3c-0.4-0.7-1.3-1-2.7-1c-1.3,0-2.2,0.3-2.7,1c-0.5,0.7-0.7,1.7-0.7,3c0,4.2,0,8.5,0,12.7c0,1.3,0.2,2.4,0.7,3.1
c0.5,0.7,1.4,1,2.7,1c1.3,0,2.2-0.3,2.6-1.1c0.5-0.7,0.7-1.7,0.7-3.1C74.1,16.9,74.1,12.7,74.1,8.5z M52.8,29
c-1.3-4.2-2.6-8.4-3.9-12.7c-0.9,0-1.9,0.1-2.8,0.1c0,4.3,0,8.6,0,12.9c-2,0.1-3.9,0.2-5.9,0.4c0-9.5,0.1-19,0.1-28.5
c2.6,0,5.2,0,7.8,0c3.4,0,6,0.5,7.6,1.6c1.7,1.1,2.5,3,2.5,5.7c0,1.8-0.3,3.2-0.9,4.3c-0.6,1.1-1.6,1.9-3.1,2.5
c1.5,4.5,3,9.1,4.5,13.6C56.8,28.8,54.8,28.9,52.8,29z M51.8,5.6c-0.6-0.7-1.8-1-3.4-1c-0.7,0-1.5,0-2.2,0c0,2.9,0,5.7,0,8.6
c0.6,0,1.3,0,1.9,0c1.7,0,2.9-0.4,3.6-1.1c0.7-0.7,1.1-1.8,1.1-3.3C52.7,7.3,52.4,6.2,51.8,5.6z M34.5,28c-1.5,1.7-3.8,2.7-7.1,3
c-3.4,0.3-5.8-0.2-7.2-1.8c-1.4-1.5-2.1-3.9-2.1-7.2c0-3.8,0-7.6,0-11.4c0-3.2,0.7-5.7,2.2-7.3c1.4-1.7,3.8-2.5,7.2-2.5
c3.3,0,5.7,0.7,7.2,2.3c1.4,1.5,2.1,3.8,2.1,6.9c0,3.6,0,7.2,0,10.8C36.7,23.9,35.9,26.3,34.5,28z M30.1,5.9c-0.4-0.7-1.3-1.1-2.7-1
c-1.3,0-2.2,0.4-2.7,1.2C24.3,6.8,24,7.9,24,9.3c0,4.6,0,9.1,0,13.7c0,1.4,0.2,2.5,0.7,3.2c0.5,0.7,1.3,1,2.7,0.9
c1.3-0.1,2.2-0.6,2.6-1.3c0.5-0.8,0.7-1.9,0.7-3.3c0-4.5,0-8.9,0-13.4C30.7,7.6,30.5,6.6,30.1,5.9z M11.5,5.6c0,8.9,0,17.9-0.1,26.8
c-2,0.2-3.9,0.5-5.8,0.8c0-9.1,0-18.3,0-27.4C3.8,5.8,2,5.9,0.2,6c0-1.5,0-2.9,0-4.4c5.5-0.1,11.1-0.2,16.6-0.2c0,1.4,0,2.7,0,4.1
C15,5.5,13.2,5.6,11.5,5.6z"/></svg>